<svg width="40" height="40" xmlns="http://www.w3.org/2000/svg">
    <g id="Layer_1">
        <title>Layer 1</title>
        <path transform="rotate(91.0809 20 20)" id="svg_1"
              d="m33.5,29.53901l-7.24187,-6.97286c0.97561,-1.54898 1.54776,-3.36118 1.54878,-5.3045c-0.00102,-5.66851 -4.76829,-10.25968 -10.65244,-10.26164c-5.88516,0.00196 -10.65447,4.59313 -10.65447,10.26066c0,5.6646 4.76931,10.25577 10.65447,10.25577c2.01931,0 3.90142,-0.5509 5.51016,-1.49027l7.2439,6.97384l3.59146,-3.46099zm-22.93598,-12.27835c0.0061,-3.50502 2.9502,-6.33879 6.58943,-6.34662c3.6372,0.00783 6.58333,2.84159 6.58943,6.34662c-0.00711,3.50307 -2.95224,6.33683 -6.58943,6.34466c-3.63923,-0.00783 -6.58333,-2.84159 -6.58943,-6.34466z"
              stroke-width="0" stroke="#000" fill="#000000"/>
    </g>
</svg>