<svg width="40" height="40" xmlns="http://www.w3.org/2000/svg">
    <g id="Layer_1">
        <title>Layer 1</title>
        <path id="svg_1"
              d="m20.00053,6.5c-7.45541,0.0032 -13.49733,6.04465 -13.50053,13.50053c0,7.45588 6.04406,13.49734 13.50053,13.49947c7.45541,-0.00213 13.49733,-6.04358 13.49947,-13.4984c-0.00107,-7.45695 -6.04299,-13.5016 -13.49947,-13.5016zm10.30049,13.50053c-0.0032,2.07102 -0.62146,3.99495 -1.67251,5.61083l-14.23925,-14.236c1.61495,-1.0531 3.53903,-1.67238 5.61234,-1.67664c5.68803,0.01172 10.28983,4.61423 10.29942,10.3018zm-20.6031,0c0.00426,-2.07102 0.62253,-3.99708 1.67677,-5.61296l14.23605,14.23706c-1.61601,1.05097 -3.53903,1.66918 -5.61128,1.67238c-5.68696,-0.00533 -10.28983,-4.6089 -10.30155,-10.29647z"
              stroke-width="0" stroke="#000" fill="#000000"/>
        <line stroke-width="4" id="svg_2" y2="28" x2="12" y1="12" x1="28" stroke="#000" fill="none"/>
    </g>
</svg>