<svg width="40" height="40" xmlns="http://www.w3.org/2000/svg">
    <g id="Layer_1">
        <title>Layer 1</title>
        <path id="svg_2"
              d="m9.52023,26.00912c-0.00674,-6.66444 -0.01348,-13.32888 -0.02023,-19.99332c6.08813,0.0766 12.20207,-0.18146 18.26958,0.19669c2.95879,0.86373 2.53239,6.24058 2.48434,10.25666c-0.12979,3.02862 1.72872,9.0325 -3.09849,9.93494c-2.40662,0.00011 -2.4161,0.84555 -2.17045,2.37491c0.28507,2.29117 -0.54251,7.42368 -4.49603,4.17051l-10.96872,-6.94038l0,0zm18.6326,-2.1786c0.00978,-5.99048 -0.07182,-11.10122 -0.47572,-15.04809c-3.58867,-1.34252 -8.43796,-0.68917 -12.49834,-0.70957c-1.59613,0.63848 3.78627,2.75854 4.92783,3.58116c4.33376,1.76876 5.62676,4.98542 4.8784,8.62072c0,1.41412 0,2.82824 0,4.24235c0.79918,-0.0008 2.45257,-0.32646 3.16784,-0.68657l0,0z"
              stroke-width="0" stroke="#000" fill="#000000"/>
    </g>
</svg>