<svg width="40" height="40" xmlns="http://www.w3.org/2000/svg">
    <g id="Layer_1">
        <title>Layer 1</title>
        <path stroke-width="2" id="svg_1"
              d="m20,5.5c-8.00822,0 -14.5,6.49178 -14.5,14.5c0,8.00822 6.49178,14.5 14.5,14.5c8.00822,0 14.5,-6.49178 14.5,-14.5c0,-8.00822 -6.49178,-14.5 -14.5,-14.5zm8.36638,13.47041c-1.44761,1.6651 -3.69733,2.2158 -5.6717,1.58229l-7.17119,8.24666c-0.76421,0.87794 -2.09409,0.96773 -2.97203,0.20452s-0.97072,-2.09409 -0.20751,-2.97203l7.18116,-8.25564c-0.89091,-1.86064 -0.65546,-4.15426 0.78516,-5.81038c1.3638,-1.57132 3.44492,-2.14597 5.33549,-1.67008l-2.74756,3.20449l0.89889,2.61487l2.71563,0.52776l2.75454,-3.21247c0.74625,1.80976 0.47189,3.96271 -0.90089,5.54001z"
              stroke="#000" fill="#fff"/>
    </g>
</svg>