<svg width="40" height="40" xmlns="http://www.w3.org/2000/svg">
    <g id="Layer_1">
        <title>Layer 1</title>
        <path stroke-width="2" id="svg_1"
              d="m20,7.5c-7.73204,0 -14,5.59582 -14,12.49956c0,2.35875 0.74101,4.56312 2.01598,6.44504l-2.01598,5.26251l5.61297,-1.71481c2.33899,1.56675 5.23703,2.50771 8.38702,2.50771c7.73206,0 14,-5.59674 14,-12.50044s-6.26795,-12.49956 -14,-12.49956zm0.9821,19.56766l-1.96915,0l0,-2.24884l1.96915,0l0,2.24884zm0,-4.65031l0,0.74387l-1.96915,0l0,-0.91553c0,-2.76294 2.64113,-3.20071 2.64113,-5.16257c0,-0.89557 -0.67197,-1.58221 -1.55297,-1.58221c-0.9121,0 -1.713,0.8002 -1.713,0.8002l-1.12019,-1.6585c0,0 1.10417,-1.37238 3.00905,-1.37238c1.81008,0 3.49007,1.33424 3.49007,3.5822c0.00096,3.14624 -2.78493,3.50772 -2.78493,5.56494l0,0z"
              stroke="#000" fill="#fff"/>
    </g>
</svg>